<?xml version="1.0" encoding="utf-8"?>
<!-- Generator: Adobe Illustrator 25.0.1, SVG Export Plug-In . SVG Version: 6.00 Build 0)  -->
<svg version="1.1" id="Layer_1" xmlns="http://www.w3.org/2000/svg" xmlns:xlink="http://www.w3.org/1999/xlink" x="0px" y="0px"
	 viewBox="0 0 397.51 171.19" style="enable-background:new 0 0 397.51 171.19;" xml:space="preserve">
<style type="text/css">
	.st0{fill:#1E1E1E;}
	.st1{fill:#CC3533;}
</style>
<g>
	<path class="st0" d="M113.19,40.16L54.11,62.63L46,83.25l60.7,27.1l27.1-60L113.19,40.16z M114.12,45.95l12.51,6.25l-18.07,7.65
		L114.12,45.95z M87.01,57.53l10.89,6.25l-15.76,6.26L87.01,57.53z M81.22,57.53l-5.33,14.83l-12.98-7.65L81.22,57.53z M58.28,67.49
		l10.89,6.72l-16.22,6.72L58.28,67.49z M59.21,83.71l16.22-6.72l21.08,22.94L59.21,83.71z M101.38,96.92L80.29,74.91l21.08-7.65
		V96.92z M103.23,60.31l-12.51-6.26l17.61-6.72L103.23,60.31z M106.47,95.99V65.87l17.14-6.72L106.47,95.99z"/>
	<path class="st1" d="M169.77,83.69h-10.66l-1.33,4.83h-9.66l11.32-30.13h10.32l11.32,30.13h-9.66L169.77,83.69z M167.94,77.19
		l-3.5-10.66l-3.5,10.66H167.94z"/>
	<polygon class="st1" points="199.58,58.71 208.9,58.71 208.9,81.36 223.22,81.36 223.22,88.85 199.58,88.85 	"/>
	<polygon class="st1" points="239.04,58.71 267.18,58.71 267.18,66.2 257.52,66.2 257.52,88.85 248.2,88.85 248.2,66.2 238.54,66.2 
			"/>
	<rect x="287.32" y="58.71" class="st1" width="9.32" height="30.13"/>
	<polygon class="st1" points="318.79,58.71 327.29,58.71 338.61,75.2 338.61,58.71 347.6,58.71 347.6,88.85 338.61,88.85 
		327.29,72.37 327.29,88.85 318.79,88.85 	"/>
	<path class="st0" d="M147.96,94.91h2c1.08,0,1.85,0.1,2.33,0.3c0.48,0.2,0.85,0.52,1.13,0.97c0.27,0.44,0.41,0.98,0.41,1.6
		c0,0.69-0.18,1.26-0.54,1.72c-0.36,0.46-0.85,0.78-1.47,0.95c-0.36,0.1-1.02,0.16-1.98,0.16v4.19h-1.88V94.91z M149.85,98.78h0.6
		c0.47,0,0.8-0.03,0.98-0.1c0.18-0.06,0.33-0.17,0.44-0.33c0.1-0.16,0.16-0.35,0.16-0.57c0-0.38-0.15-0.66-0.44-0.83
		c-0.22-0.13-0.61-0.2-1.2-0.2h-0.53V98.78z"/>
	<path class="st0" d="M176.59,94.91h1.91l3.8,9.89h-1.96l-0.77-2.03h-4.03l-0.81,2.03h-1.95L176.59,94.91z M177.55,97.53l-1.33,3.39
		h2.65L177.55,97.53z"/>
	<polygon class="st0" points="200.89,94.91 202.74,94.91 204.17,101.22 205.94,94.91 207.5,94.91 209.29,101.22 210.71,94.91 
		212.55,94.91 210.33,104.8 208.53,104.8 206.7,98.41 204.92,104.8 203.13,104.8 	"/>
	<polygon class="st0" points="231.92,94.91 233.73,94.91 237.96,101.42 237.96,94.91 239.84,94.91 239.84,104.8 238.03,104.8 
		233.81,98.31 233.81,104.8 231.92,104.8 	"/>
	<path class="st0" d="M265.17,96.26l-1.39,1.23c-0.49-0.68-0.99-1.02-1.49-1.02c-0.25,0-0.45,0.07-0.61,0.2
		c-0.16,0.13-0.23,0.28-0.23,0.45s0.06,0.32,0.17,0.47c0.15,0.2,0.61,0.62,1.38,1.27c0.72,0.6,1.15,0.98,1.3,1.14
		c0.38,0.38,0.65,0.75,0.81,1.11c0.16,0.35,0.24,0.73,0.24,1.15c0,0.81-0.28,1.48-0.84,2.01c-0.56,0.53-1.29,0.79-2.19,0.79
		c-0.7,0-1.32-0.17-1.84-0.52c-0.52-0.34-0.97-0.89-1.34-1.62l1.58-0.95c0.48,0.87,1.02,1.31,1.64,1.31c0.32,0,0.6-0.09,0.82-0.28
		c0.22-0.19,0.33-0.4,0.33-0.65c0-0.22-0.08-0.45-0.25-0.67c-0.17-0.22-0.53-0.57-1.1-1.03c-1.07-0.88-1.77-1.55-2.09-2.03
		c-0.31-0.48-0.47-0.95-0.47-1.43c0-0.69,0.26-1.27,0.79-1.76c0.52-0.49,1.16-0.73,1.93-0.73c0.49,0,0.96,0.11,1.41,0.34
		C264.17,95.23,264.65,95.65,265.17,96.26"/>
	<polygon class="st0" points="285.03,94.91 286.93,94.91 286.93,98.64 290.23,98.64 290.23,94.91 292.14,94.91 292.14,104.8 
		290.23,104.8 290.23,100.46 286.93,100.46 286.93,104.8 285.03,104.8 	"/>
	<path class="st0" d="M316.95,94.66c1.39,0,2.6,0.51,3.61,1.52c1.01,1.01,1.51,2.25,1.51,3.7c0,1.44-0.49,2.67-1.49,3.66
		c-0.99,1-2.2,1.5-3.61,1.5c-1.48,0-2.72-0.51-3.7-1.54c-0.99-1.03-1.47-2.24-1.47-3.66c0-0.94,0.23-1.81,0.68-2.61
		c0.46-0.8,1.09-1.42,1.89-1.89C315.17,94.9,316.03,94.66,316.95,94.66 M316.93,96.5c-0.91,0-1.69,0.32-2.31,0.95
		c-0.62,0.64-0.93,1.45-0.93,2.43c0,1.09,0.39,1.96,1.17,2.59c0.61,0.49,1.31,0.75,2.1,0.75c0.89,0,1.65-0.32,2.28-0.97
		c0.63-0.64,0.94-1.44,0.94-2.38c0-0.94-0.32-1.74-0.95-2.39C318.61,96.83,317.84,96.5,316.93,96.5"/>
	<path class="st0" d="M341.73,94.91h2c1.08,0,1.86,0.1,2.33,0.3c0.48,0.2,0.85,0.52,1.13,0.97c0.27,0.44,0.41,0.98,0.41,1.6
		c0,0.69-0.18,1.26-0.54,1.72c-0.36,0.46-0.85,0.78-1.47,0.95c-0.36,0.1-1.03,0.16-1.98,0.16v4.19h-1.88V94.91z M343.61,98.78h0.6
		c0.47,0,0.8-0.03,0.98-0.1c0.18-0.06,0.33-0.17,0.44-0.33c0.1-0.16,0.16-0.35,0.16-0.57c0-0.38-0.15-0.66-0.44-0.83
		c-0.22-0.13-0.61-0.2-1.2-0.2h-0.53V98.78z"/>
</g>
</svg>
