<?xml version="1.0" encoding="utf-8"?>
<!-- Generator: Adobe Illustrator 25.0.1, SVG Export Plug-In . SVG Version: 6.00 Build 0)  -->
<svg version="1.1" id="Layer_1" xmlns="http://www.w3.org/2000/svg" xmlns:xlink="http://www.w3.org/1999/xlink" x="0px" y="0px"
	 viewBox="0 0 397.51 171.19" style="enable-background:new 0 0 397.51 171.19;" xml:space="preserve">
<style type="text/css">
	.st0{fill:#CC3533;}
	.st1{fill:#1E1E1E;}
</style>
<g>
	<path class="st0" d="M76.93,33.65l-23.9-3.92c0,0-10.34,41.37-6.42,100.59l14.62-0.71C61.23,129.25,60.17,88.94,76.93,33.65
		 M51.61,76.81c5.71-21.05,14.27-32.46,14.27-32.46l2.5,3.21c-9.63,15.69-11.06,32.1-11.06,32.1C56.6,78.95,51.61,76.81,51.61,76.81
		"/>
	<rect x="88.34" y="54.59" class="st1" width="8.6" height="41.15"/>
	<path class="st1" d="M117.67,64.28c-1.49,0-2.97,0.29-4.4,0.87c-1.18,0.48-2.49,1.28-3.89,2.38v-2.49h-8.46v30.7h8.46V83.33
		c0-3.04,0.1-5.03,0.31-5.91c0.39-1.67,1.1-2.99,2.1-3.93c0.99-0.93,2.15-1.38,3.54-1.38c1.05,0,1.91,0.26,2.62,0.81
		c0.69,0.54,1.19,1.34,1.48,2.39c0.3,1.11,0.46,3.44,0.46,6.93v13.51h8.38V75.62c0-3.54-0.92-6.27-2.74-8.11
		C123.38,65.37,120.74,64.28,117.67,64.28"/>
	<polygon class="st1" points="145.44,65.05 141.02,65.05 141.02,54.1 132.56,54.1 132.56,65.05 128.74,65.05 128.74,72.47 
		132.56,72.47 132.56,95.75 141.02,95.75 141.02,72.47 145.44,72.47 	"/>
	<path class="st1" d="M160.09,64.28c-4.52,0-8.34,1.56-11.35,4.64c-3,3.08-4.52,6.99-4.52,11.64c0,4.54,1.53,8.37,4.54,11.39
		c3.01,3.03,6.96,4.56,11.74,4.56c3.06,0,5.76-0.55,8-1.65c2.25-1.1,4.2-2.81,5.81-5.09l0.35-0.49l-7.14-3.35l-0.25,0.24
		c-1.89,1.84-4.19,2.78-6.83,2.78c-2.2,0-4.02-0.59-5.42-1.75c-1.25-1.04-2.09-2.43-2.48-4.14h23.81l0.04-1.92
		c0-5.03-1.52-9.14-4.54-12.21C168.85,65.84,164.89,64.28,160.09,64.28 M153.07,76.18c0.7-1.37,1.45-2.36,2.23-2.93
		c1.47-1.1,3.21-1.65,5.17-1.65c1.79,0,3.39,0.49,4.75,1.46c1.15,0.83,1.99,1.88,2.49,3.12H153.07z"/>
	<path class="st1" d="M200.54,67.7c-1.29-1.09-2.59-1.91-3.87-2.44c-1.57-0.65-3.27-0.98-5.04-0.98c-3.78,0-7.07,1.35-9.79,4.02
		c-3,2.94-4.52,6.88-4.52,11.71c0,4.52,1.43,8.31,4.26,11.26c2.84,2.97,6.35,4.47,10.46,4.47c1.87,0,3.58-0.3,5.07-0.89
		c1.17-0.47,2.31-1.18,3.4-2.11c-0.07,1.69-0.29,2.92-0.67,3.67c-0.45,0.88-1.24,1.61-2.36,2.18c-1.14,0.58-2.69,0.87-4.6,0.87
		c-1.5,0-2.8-0.2-3.89-0.61c-1.06-0.4-1.94-0.99-2.61-1.76l-0.15-0.17h-9.14l0.21,0.66c0.67,2.08,1.73,3.88,3.14,5.34
		c1.41,1.46,3.17,2.58,5.21,3.33c2.03,0.75,4.56,1.12,7.52,1.12c5.59,0,9.84-1.68,12.64-4.98c2.09-2.45,3.15-6.29,3.15-11.41V65.05
		h-8.43V67.7z M198.8,74.42c1.41,1.44,2.12,3.35,2.12,5.68c0,2.36-0.71,4.29-2.11,5.73c-1.42,1.46-3.17,2.17-5.36,2.17
		c-2.24,0-4.05-0.73-5.53-2.22c-1.46-1.48-2.2-3.41-2.2-5.73c0-2.24,0.72-4.12,2.15-5.58c1.44-1.49,3.23-2.21,5.45-2.21
		C195.58,72.25,197.38,72.96,198.8,74.42"/>
	<path class="st1" d="M227.61,65.1c-2.69-1.31-5.2-0.98-7.3,0.42c-0.75,0.5-1.4,1.14-1.97,1.92v-2.38h-7.4v30.7h8.41V83.22
		l-0.03-1.44c0-4.04,0.38-6.77,1.12-8.1c0.7-1.26,1.51-1.87,2.47-1.87c0.48,0,1.13,0.2,1.93,0.61l0.51,0.25l2.67-7.37L227.61,65.1z"
		/>
	<path class="st1" d="M249.69,67.66c-1.13-0.99-2.35-1.77-3.63-2.32c-1.62-0.7-3.37-1.05-5.22-1.05c-4,0-7.44,1.53-10.24,4.55
		c-2.79,3.01-4.19,6.92-4.19,11.61c0,4.53,1.46,8.38,4.34,11.44c2.88,3.07,6.35,4.62,10.32,4.62c1.77,0,3.43-0.32,4.95-0.95
		c1.23-0.51,2.46-1.29,3.67-2.32v2.51h8.46v-30.7h-8.46V67.66z M247.85,74.41c1.44,1.5,2.17,3.49,2.17,5.93
		c0,2.49-0.73,4.53-2.17,6.05c-1.45,1.54-3.24,2.29-5.45,2.29c-2.14,0-3.89-0.76-5.36-2.32c-1.45-1.55-2.19-3.57-2.19-5.99
		c0-2.41,0.72-4.4,2.14-5.92c1.44-1.54,3.19-2.28,5.37-2.28C244.6,72.17,246.39,72.9,247.85,74.41"/>
	<polygon class="st0" points="287.23,79.81 270.83,54.59 262.72,54.59 262.72,95.75 271.37,95.75 271.37,70.61 287.75,95.75 
		295.88,95.75 295.88,54.59 287.23,54.59 	"/>
	<path class="st0" d="M314.91,64.28c-4.53,0-8.34,1.56-11.35,4.64c-3,3.08-4.53,6.99-4.53,11.64c0,4.54,1.53,8.37,4.54,11.39
		c3.01,3.03,6.96,4.56,11.74,4.56c3.06,0,5.75-0.55,8-1.65c2.25-1.1,4.2-2.81,5.81-5.09l0.35-0.49l-7.14-3.35l-0.25,0.24
		c-1.89,1.84-4.19,2.78-6.83,2.78c-2.2,0-4.02-0.59-5.42-1.75c-1.26-1.04-2.09-2.43-2.48-4.14h23.81l0.04-1.92
		c0-5.03-1.52-9.14-4.54-12.21C323.66,65.84,319.69,64.28,314.91,64.28 M307.88,76.18c0.7-1.37,1.45-2.36,2.23-2.93
		c1.48-1.1,3.21-1.65,5.17-1.65c1.8,0,3.39,0.49,4.75,1.46c1.15,0.83,1.99,1.88,2.49,3.12H307.88z"/>
	<polygon class="st0" points="342.77,65.05 342.77,54.1 334.31,54.1 334.31,65.05 330.49,65.05 330.49,72.47 334.31,72.47 
		334.31,95.75 342.77,95.75 342.77,72.47 347.19,72.47 347.19,65.05 	"/>
	<polygon class="st1" points="157.65,129.77 157.65,111.12 158.06,111.12 170.47,125.42 170.47,111.12 172.31,111.12 172.31,129.77 
		171.89,129.77 159.58,115.65 159.58,129.77 	"/>
	<path class="st1" d="M186.87,125.19l1.5,0.79c-0.49,0.96-1.06,1.74-1.7,2.33c-0.64,0.6-1.37,1.04-2.17,1.35
		c-0.8,0.31-1.72,0.46-2.73,0.46c-2.25,0-4.01-0.74-5.28-2.22c-1.27-1.48-1.91-3.14-1.91-5c0-1.75,0.54-3.31,1.61-4.68
		c1.36-1.74,3.18-2.61,5.47-2.61c2.35,0,4.23,0.89,5.63,2.68c1,1.26,1.5,2.83,1.52,4.72h-12.41c0.04,1.6,0.55,2.92,1.54,3.94
		c0.99,1.03,2.21,1.54,3.67,1.54c0.7,0,1.38-0.12,2.05-0.37c0.66-0.25,1.23-0.57,1.69-0.97
		C185.82,126.75,186.33,126.09,186.87,125.19 M186.87,121.48c-0.24-0.95-0.58-1.7-1.04-2.27c-0.45-0.57-1.05-1.02-1.8-1.37
		c-0.74-0.35-1.52-0.52-2.35-0.52c-1.36,0-2.52,0.44-3.49,1.31c-0.71,0.64-1.25,1.59-1.61,2.85H186.87z"/>
	<polygon class="st1" points="192.38,110.85 194.16,110.85 194.16,115.98 196.97,115.98 196.97,117.51 194.16,117.51 194.16,129.77 
		192.38,129.77 192.38,117.51 189.96,117.51 189.96,115.98 192.38,115.98 	"/>
	<polygon class="st1" points="196.47,115.98 198.3,115.98 202.52,125.99 206.92,115.98 207.25,115.98 211.68,125.99 215.99,115.98 
		217.83,115.98 211.84,129.77 211.51,129.77 207.1,119.89 202.69,129.77 202.36,129.77 	"/>
	<path class="st1" d="M225.14,115.62c2.13,0,3.89,0.77,5.29,2.31c1.27,1.4,1.91,3.06,1.91,4.98c0,1.93-0.67,3.61-2.01,5.05
		c-1.34,1.44-3.06,2.16-5.18,2.16c-2.11,0-3.84-0.72-5.18-2.16c-1.35-1.44-2.01-3.12-2.01-5.05c0-1.91,0.63-3.57,1.91-4.97
		C221.24,116.4,223.01,115.62,225.14,115.62 M225.13,117.36c-1.48,0-2.74,0.55-3.81,1.63c-1.06,1.09-1.59,2.41-1.59,3.95
		c0,1,0.24,1.93,0.73,2.79c0.49,0.86,1.14,1.53,1.96,2c0.82,0.47,1.73,0.7,2.71,0.7c0.98,0,1.89-0.24,2.71-0.7
		c0.82-0.47,1.47-1.13,1.96-2c0.48-0.86,0.73-1.79,0.73-2.79c0-1.55-0.54-2.86-1.6-3.95C227.87,117.9,226.6,117.36,225.13,117.36"/>
	<path class="st1" d="M233.64,115.98h1.81v2.01c0.54-0.79,1.11-1.39,1.71-1.78c0.6-0.39,1.23-0.59,1.88-0.59
		c0.49,0,1.01,0.15,1.57,0.47l-0.92,1.5c-0.37-0.16-0.69-0.24-0.94-0.24c-0.59,0-1.16,0.24-1.71,0.73
		c-0.55,0.49-0.97,1.24-1.26,2.26c-0.22,0.79-0.33,2.38-0.33,4.77v4.67h-1.81V115.98z"/>
	<polygon class="st1" points="240.81,110.65 242.59,110.65 242.59,121.54 248.98,115.98 251.59,115.98 244.01,122.55 252.03,129.77 
		249.54,129.77 242.59,123.56 242.59,129.77 240.81,129.77 	"/>
	<path class="st1" d="M256.82,126.3l1.58-0.95c1.12,2.05,2.4,3.08,3.87,3.08c0.63,0,1.21-0.14,1.76-0.44
		c0.55-0.29,0.97-0.68,1.25-1.17c0.29-0.49,0.43-1.01,0.43-1.56c0-0.63-0.21-1.24-0.63-1.84c-0.58-0.83-1.65-1.82-3.2-2.99
		c-1.55-1.17-2.52-2.03-2.9-2.55c-0.66-0.88-0.99-1.83-0.99-2.85c0-0.81,0.2-1.55,0.58-2.22c0.39-0.67,0.94-1.19,1.64-1.58
		c0.71-0.38,1.47-0.58,2.3-0.58c0.88,0,1.7,0.22,2.47,0.65c0.76,0.44,1.57,1.24,2.43,2.4l-1.52,1.16c-0.7-0.93-1.3-1.54-1.79-1.84
		c-0.5-0.3-1.04-0.44-1.62-0.44c-0.75,0-1.37,0.23-1.85,0.69c-0.48,0.45-0.71,1.01-0.71,1.68c0,0.41,0.08,0.8,0.25,1.18
		s0.48,0.8,0.93,1.24c0.24,0.24,1.05,0.86,2.41,1.86c1.62,1.19,2.72,2.25,3.32,3.18c0.6,0.93,0.9,1.87,0.9,2.8
		c0,1.35-0.51,2.53-1.54,3.52c-1.03,1-2.28,1.5-3.75,1.5c-1.13,0-2.16-0.3-3.08-0.91C258.44,128.73,257.59,127.71,256.82,126.3"/>
	<path class="st1" d="M281.69,125.19l1.5,0.79c-0.49,0.96-1.06,1.74-1.7,2.33c-0.64,0.6-1.37,1.04-2.17,1.35
		c-0.8,0.31-1.72,0.46-2.73,0.46c-2.25,0-4.01-0.74-5.28-2.22c-1.27-1.48-1.91-3.14-1.91-5c0-1.75,0.54-3.31,1.61-4.68
		c1.36-1.74,3.19-2.61,5.47-2.61c2.35,0,4.23,0.89,5.63,2.68c1,1.26,1.5,2.83,1.52,4.72h-12.41c0.04,1.6,0.55,2.92,1.54,3.94
		c0.99,1.03,2.22,1.54,3.67,1.54c0.7,0,1.38-0.12,2.05-0.37c0.66-0.25,1.23-0.57,1.69-0.97
		C280.65,126.75,281.15,126.09,281.69,125.19 M281.69,121.48c-0.24-0.95-0.58-1.7-1.04-2.27c-0.45-0.57-1.05-1.02-1.8-1.37
		c-0.74-0.35-1.52-0.52-2.35-0.52c-1.36,0-2.52,0.44-3.49,1.31c-0.71,0.64-1.25,1.59-1.61,2.85H281.69z"/>
	<path class="st1" d="M284.99,115.98h1.81v2.01c0.54-0.79,1.11-1.39,1.71-1.78c0.6-0.39,1.23-0.59,1.88-0.59
		c0.49,0,1.01,0.15,1.57,0.47l-0.92,1.5c-0.37-0.16-0.68-0.24-0.94-0.24c-0.6,0-1.16,0.24-1.71,0.73c-0.55,0.49-0.97,1.24-1.26,2.26
		c-0.22,0.79-0.33,2.38-0.33,4.77v4.67h-1.81V115.98z"/>
	<polygon class="st1" points="290.86,115.98 292.75,115.98 297.38,126.03 301.96,115.98 303.86,115.98 297.54,129.77 297.22,129.77 
			"/>
	<path class="st1" d="M305.88,110.29c0.4,0,0.75,0.14,1.03,0.43c0.29,0.29,0.43,0.63,0.43,1.04c0,0.4-0.14,0.74-0.43,1.02
		c-0.29,0.29-0.63,0.43-1.03,0.43c-0.4,0-0.74-0.14-1.02-0.43c-0.29-0.29-0.43-0.63-0.43-1.02c0-0.41,0.14-0.75,0.43-1.04
		C305.14,110.44,305.48,110.29,305.88,110.29 M305,115.98h1.77v13.79H305V115.98z"/>
	<path class="st1" d="M322.55,118.84l-1.41,0.88c-1.22-1.62-2.87-2.42-4.98-2.42c-1.68,0-3.08,0.54-4.19,1.62
		c-1.11,1.08-1.67,2.39-1.67,3.94c0,1.01,0.26,1.95,0.77,2.84c0.51,0.88,1.21,1.57,2.1,2.06c0.89,0.49,1.89,0.74,2.99,0.74
		c2.03,0,3.68-0.81,4.97-2.42l1.41,0.93c-0.66,0.99-1.54,1.76-2.66,2.31c-1.11,0.55-2.38,0.82-3.8,0.82c-2.18,0-3.99-0.69-5.43-2.08
		c-1.44-1.38-2.16-3.07-2.16-5.06c0-1.33,0.33-2.57,1.01-3.72c0.67-1.15,1.6-2.04,2.77-2.68c1.17-0.64,2.49-0.96,3.94-0.96
		c0.91,0,1.79,0.14,2.64,0.42c0.85,0.28,1.57,0.64,2.16,1.09C321.63,117.58,322.13,118.15,322.55,118.84"/>
	<path class="st1" d="M336.27,125.19l1.5,0.79c-0.49,0.96-1.06,1.74-1.7,2.33c-0.64,0.6-1.37,1.04-2.17,1.35
		c-0.8,0.31-1.72,0.46-2.73,0.46c-2.25,0-4.01-0.74-5.28-2.22c-1.27-1.48-1.91-3.14-1.91-5c0-1.75,0.54-3.31,1.61-4.68
		c1.36-1.74,3.18-2.61,5.47-2.61c2.35,0,4.23,0.89,5.63,2.68c1,1.26,1.5,2.83,1.52,4.72h-12.41c0.04,1.6,0.55,2.92,1.54,3.94
		c0.99,1.03,2.22,1.54,3.67,1.54c0.7,0,1.38-0.12,2.05-0.37c0.66-0.25,1.23-0.57,1.69-0.97
		C335.23,126.75,335.73,126.09,336.27,125.19 M336.27,121.48c-0.24-0.95-0.58-1.7-1.04-2.27c-0.45-0.57-1.05-1.02-1.8-1.37
		c-0.74-0.35-1.52-0.52-2.35-0.52c-1.36,0-2.52,0.44-3.49,1.31c-0.71,0.64-1.25,1.59-1.61,2.85H336.27z"/>
	<path class="st1" d="M347.17,117.49l-1.14,1.18c-0.95-0.92-1.88-1.38-2.78-1.38c-0.58,0-1.07,0.19-1.48,0.57
		c-0.41,0.38-0.61,0.82-0.61,1.33c0,0.45,0.17,0.87,0.51,1.28c0.34,0.41,1.05,0.9,2.13,1.45c1.32,0.69,2.22,1.35,2.69,1.98
		c0.47,0.64,0.7,1.37,0.7,2.17c0,1.13-0.39,2.09-1.19,2.88c-0.8,0.79-1.79,1.18-2.99,1.18c-0.79,0-1.55-0.18-2.28-0.52
		c-0.72-0.35-1.32-0.82-1.79-1.43l1.11-1.27c0.91,1.02,1.87,1.54,2.88,1.54c0.71,0,1.32-0.23,1.82-0.68c0.5-0.46,0.75-1,0.75-1.61
		c0-0.51-0.17-0.96-0.5-1.36c-0.33-0.39-1.07-0.88-2.23-1.47c-1.25-0.64-2.1-1.28-2.54-1.9c-0.45-0.63-0.68-1.34-0.68-2.14
		c0-1.05,0.36-1.92,1.08-2.61c0.71-0.69,1.62-1.04,2.71-1.04C344.6,115.62,345.88,116.24,347.17,117.49"/>
</g>
</svg>
