<?xml version="1.0" encoding="utf-8"?>
<!-- Generator: Adobe Illustrator 25.0.1, SVG Export Plug-In . SVG Version: 6.00 Build 0)  -->
<svg version="1.1" id="Layer_1" xmlns="http://www.w3.org/2000/svg" xmlns:xlink="http://www.w3.org/1999/xlink" x="0px" y="0px"
	 viewBox="0 0 397.51 171.19" style="enable-background:new 0 0 397.51 171.19;" xml:space="preserve">
<style type="text/css">
	.st0{fill:#CC3533;}
	.st1{fill:#333333;}
	.st2{fill:#282828;}
</style>
<g>
	<path class="st0" d="M76.53,98.18c0,1.15,0.93,2.08,2.08,2.08h55.85c1.15,0,2.08-0.93,2.08-2.08V83.92c0-1.15-0.93-2.08-2.08-2.08
		H96.63v-53.2c0-1.15-0.93-2.08-2.08-2.08H78.61c-1.15,0-2.08,0.93-2.08,2.08V98.18z"/>
	<path class="st1" d="M127.96,46.38c0-1.15-0.93-2.08-2.08-2.08H70.04c-1.15,0-2.08,0.93-2.08,2.08v14.26
		c0,1.15,0.93,2.08,2.08,2.08h37.83v53.2c0,1.15,0.93,2.08,2.08,2.08h15.94c1.15,0,2.08-0.93,2.08-2.08V46.38z"/>
	<path class="st0" d="M129.05,45.21c0-1.15-0.93-2.08-2.08-2.08H71.12c-1.15,0-2.08,0.93-2.08,2.08v14.26
		c0,1.15,0.93,2.08,2.08,2.08h37.83v53.2c0,1.15,0.93,2.08,2.08,2.08h15.94c1.15,0,2.08-0.93,2.08-2.08V45.21z"/>
</g>
<g>
	<polygon class="st2" points="156.9,67.28 156.9,44.13 152.28,44.13 152.28,71.84 168.5,71.84 168.5,67.28 	"/>
	<polygon class="st2" points="234.79,67.28 234.79,44.13 230.17,44.13 230.17,71.84 246.39,71.84 246.39,67.28 	"/>
	<path class="st2" d="M184.78,48.25v14.22c0,0.7-0.13,1.38-0.39,2.01c-0.29,0.66-0.69,1.24-1.2,1.72c-0.5,0.51-1.07,0.89-1.7,1.15
		c-1.32,0.54-2.82,0.52-4.03,0c-0.63-0.25-1.2-0.64-1.71-1.15c-0.54-0.55-0.92-1.11-1.17-1.71c-0.26-0.63-0.4-1.31-0.4-2.02V48.25
		h-4.06v14.23c0,1.3,0.23,2.51,0.67,3.59c0.45,1.1,1.15,2.12,2.06,3.01c0.88,0.92,1.91,1.62,3.04,2.09c1.09,0.44,2.3,0.67,3.6,0.67
		c1.29,0,2.49-0.23,3.57-0.68c1.05-0.42,2.08-1.11,3.04-2.05l0.16-0.17v-0.01c0.83-0.87,1.48-1.83,1.91-2.87
		c0.44-1.09,0.67-2.29,0.67-3.59V48.25H184.78z"/>
	<polygon class="st2" points="198.6,60.47 198.45,60.26 205.43,48.25 200.74,48.25 194.89,58.33 194.89,48.25 190.85,48.25 
		190.85,71.84 194.89,71.84 194.91,62.24 201.58,71.84 206.53,71.84 	"/>
	<path class="st2" d="M218.9,63.06c-0.21-0.59-0.5-1.12-0.85-1.58c-0.35-0.45-0.76-0.88-1.24-1.27c-0.47-0.38-0.97-0.71-1.48-0.99
		c-0.5-0.27-1.04-0.5-1.61-0.71c-0.17-0.06-0.42-0.14-0.73-0.24l-0.81-0.25c-0.22-0.07-0.48-0.17-0.78-0.29
		c-0.29-0.11-0.54-0.23-0.76-0.35c-0.2-0.11-0.41-0.25-0.63-0.42c-0.2-0.15-0.36-0.32-0.49-0.49c-0.12-0.17-0.23-0.37-0.3-0.6
		c-0.08-0.24-0.12-0.48-0.12-0.75c0-0.38,0.08-0.74,0.22-1.08c0.15-0.35,0.37-0.66,0.63-0.93c0.26-0.27,0.57-0.47,0.92-0.62
		c0.34-0.15,0.7-0.22,1.09-0.22c0.77,0,1.43,0.28,2,0.84c0.32,0.33,0.55,0.68,0.68,1.07l0.15,0.43l3.95-0.84l-0.15-0.54
		c-0.37-1.32-1.08-2.45-2.12-3.35c-0.62-0.54-1.32-0.96-2.09-1.25c-1.63-0.62-3.52-0.59-5.13,0.09c-0.84,0.36-1.59,0.86-2.23,1.49
		c-0.64,0.63-1.14,1.37-1.49,2.21c-0.35,0.84-0.53,1.74-0.53,2.68c0,0.7,0.12,1.38,0.35,2.03c0.23,0.65,0.57,1.24,1,1.76
		c0.62,0.74,1.34,1.35,2.16,1.81c0.81,0.45,1.73,0.82,2.73,1.1c0.42,0.12,0.81,0.24,1.16,0.37c0.34,0.12,0.7,0.29,1.07,0.48
		c0.37,0.2,0.67,0.4,0.91,0.61c0.22,0.2,0.4,0.44,0.55,0.73c0.13,0.27,0.2,0.56,0.19,0.88c0,0.39-0.09,0.76-0.27,1.1
		c-0.18,0.35-0.42,0.64-0.72,0.89c-0.31,0.25-0.66,0.45-1.06,0.61l0,0c-0.38,0.16-0.79,0.25-1.15,0.28c-0.63,0-1.24-0.19-1.82-0.55
		c-0.58-0.37-0.98-0.82-1.22-1.4l-0.17-0.4l-3.96,0.84l0.17,0.55c0.3,0.98,0.82,1.87,1.54,2.64c0.71,0.76,1.55,1.36,2.5,1.78
		c0.96,0.41,1.95,0.62,2.97,0.62c0.93,0,1.85-0.18,2.73-0.54c0.87-0.35,1.65-0.84,2.32-1.44c0.67-0.61,1.21-1.35,1.62-2.21
		c0.41-0.87,0.62-1.79,0.62-2.74C219.22,64.27,219.11,63.65,218.9,63.06z"/>
	<path class="st2" d="M319.86,63.06c-0.21-0.59-0.5-1.12-0.85-1.58c-0.35-0.45-0.76-0.88-1.24-1.27c-0.47-0.38-0.97-0.71-1.48-0.99
		c-0.5-0.27-1.04-0.5-1.61-0.71c-0.17-0.06-0.42-0.14-0.73-0.24l-0.81-0.25c-0.22-0.07-0.48-0.17-0.78-0.29
		c-0.29-0.11-0.54-0.23-0.76-0.35c-0.2-0.11-0.41-0.25-0.63-0.42c-0.2-0.15-0.36-0.32-0.49-0.49c-0.12-0.17-0.23-0.37-0.3-0.6
		c-0.08-0.24-0.12-0.48-0.12-0.75c0-0.38,0.08-0.74,0.22-1.08c0.15-0.35,0.37-0.66,0.63-0.93c0.26-0.27,0.57-0.47,0.92-0.62
		c0.34-0.15,0.7-0.22,1.09-0.22c0.77,0,1.43,0.28,2,0.84c0.32,0.33,0.55,0.68,0.68,1.07l0.15,0.43l3.95-0.84l-0.15-0.54
		c-0.37-1.32-1.08-2.45-2.12-3.35c-0.62-0.54-1.32-0.96-2.09-1.25c-1.63-0.62-3.52-0.59-5.13,0.09c-0.84,0.36-1.59,0.86-2.23,1.49
		c-0.64,0.63-1.14,1.37-1.49,2.21c-0.35,0.84-0.53,1.74-0.53,2.68c0,0.7,0.12,1.38,0.35,2.03c0.23,0.65,0.57,1.24,1,1.76
		c0.62,0.74,1.34,1.35,2.16,1.81c0.81,0.45,1.73,0.82,2.73,1.1c0.42,0.12,0.81,0.24,1.16,0.37c0.34,0.12,0.7,0.29,1.07,0.48
		c0.37,0.2,0.67,0.4,0.91,0.61c0.22,0.2,0.4,0.44,0.55,0.73c0.13,0.27,0.2,0.56,0.19,0.88c0,0.39-0.09,0.76-0.27,1.1
		c-0.18,0.35-0.42,0.64-0.72,0.89c-0.31,0.25-0.66,0.45-1.06,0.61l0,0c-0.38,0.16-0.79,0.25-1.15,0.28c-0.63,0-1.24-0.19-1.82-0.55
		c-0.58-0.37-0.98-0.82-1.22-1.4l-0.17-0.4l-3.96,0.84l0.17,0.55c0.3,0.98,0.82,1.87,1.54,2.64c0.71,0.76,1.55,1.36,2.5,1.78
		c0.96,0.41,1.95,0.62,2.97,0.62c0.93,0,1.85-0.18,2.73-0.54c0.87-0.35,1.65-0.84,2.32-1.44c0.67-0.61,1.21-1.35,1.62-2.21
		c0.41-0.87,0.62-1.79,0.62-2.74C320.18,64.27,320.08,63.65,319.86,63.06z"/>
	<path class="st2" d="M270.81,55.51c-0.57-1.37-1.45-2.66-2.61-3.82c-1.17-1.16-2.46-2.05-3.82-2.62c-2.74-1.15-6.37-1.14-9.05,0
		c-1.37,0.57-2.66,1.45-3.82,2.61c-1.17,1.19-2.04,2.48-2.59,3.84c-0.57,1.36-0.86,2.88-0.86,4.52c0,1.65,0.29,3.17,0.86,4.51
		c0.56,1.39,1.43,2.68,2.59,3.83c1.14,1.15,2.42,2.02,3.82,2.6c1.39,0.57,2.92,0.86,4.53,0.86c1.59,0,3.11-0.29,4.52-0.86
		c1.41-0.59,2.7-1.46,3.83-2.59c1.16-1.15,2.04-2.43,2.61-3.81c0.58-1.39,0.88-2.92,0.88-4.53
		C271.69,58.44,271.39,56.91,270.81,55.51z M267.61,60.01c0,1.07-0.2,2.06-0.59,2.96c-0.37,0.9-0.94,1.74-1.71,2.51
		c-0.74,0.74-1.58,1.31-2.5,1.69c-1.85,0.77-4.09,0.76-5.94,0c-0.93-0.38-1.76-0.94-2.49-1.69c-0.77-0.77-1.35-1.61-1.71-2.51
		c-0.37-0.89-0.56-1.88-0.56-2.96c0-1.08,0.18-2.05,0.56-2.97c0.37-0.9,0.94-1.74,1.71-2.51c0.72-0.73,1.56-1.3,2.49-1.71
		c1.85-0.75,4.09-0.76,5.92,0c0.93,0.4,1.78,0.98,2.52,1.7c0.75,0.77,1.32,1.62,1.7,2.52C267.41,57.97,267.61,58.97,267.61,60.01z"
		/>
	<polygon class="st2" points="287.12,52.26 287.12,48.22 273.28,48.22 273.28,71.84 277.35,71.84 277.35,62.05 284.67,62.05 
		284.67,58 277.35,58 277.35,52.26 	"/>
	<polygon class="st2" points="288.58,48.22 288.58,52.27 294.6,52.27 294.6,71.84 298.68,71.84 298.68,52.27 304.7,52.27 
		304.7,48.22 	"/>
</g>
<path class="st2" d="M325.11,82.92H144.87c-0.29,0-0.53-0.24-0.53-0.53c0-0.3,0.24-0.53,0.53-0.53h180.24
	c0.29,0,0.53,0.24,0.53,0.53C325.64,82.68,325.4,82.92,325.11,82.92z"/>
<g>
	<path class="st2" d="M223.35,93.69c-0.57-1.37-1.45-2.66-2.61-3.82c-1.17-1.16-2.46-2.05-3.82-2.62c-2.74-1.15-6.37-1.14-9.05,0
		c-1.37,0.57-2.66,1.45-3.82,2.61c-1.17,1.19-2.04,2.48-2.59,3.84c-0.57,1.36-0.86,2.88-0.86,4.52c0,1.65,0.29,3.17,0.86,4.51
		c0.56,1.39,1.43,2.68,2.59,3.83c1.14,1.15,2.42,2.02,3.82,2.6c1.39,0.57,2.92,0.86,4.53,0.86c1.59,0,3.11-0.29,4.52-0.86
		c1.41-0.59,2.7-1.46,3.83-2.59c1.16-1.15,2.04-2.43,2.61-3.81c0.58-1.39,0.88-2.92,0.88-4.53
		C224.22,96.61,223.93,95.09,223.35,93.69z M220.15,98.19c0,1.07-0.2,2.06-0.59,2.96c-0.37,0.9-0.94,1.74-1.71,2.51
		c-0.74,0.74-1.58,1.31-2.5,1.69c-1.85,0.77-4.09,0.76-5.94,0c-0.93-0.38-1.76-0.94-2.49-1.69c-0.77-0.77-1.35-1.61-1.71-2.51
		c-0.37-0.89-0.56-1.88-0.56-2.96c0-1.08,0.18-2.05,0.56-2.97c0.37-0.9,0.94-1.74,1.71-2.51c0.72-0.73,1.56-1.3,2.49-1.71
		c1.85-0.75,4.09-0.76,5.92,0c0.93,0.4,1.78,0.98,2.52,1.7c0.75,0.77,1.32,1.62,1.7,2.52C219.95,96.15,220.15,97.14,220.15,98.19z"
		/>
	<polygon class="st2" points="228.84,86.37 228.84,90.42 234.86,90.42 234.86,110 238.94,110 238.94,90.42 244.96,90.42 
		244.96,86.37 	"/>
	<polygon class="st2" points="187.71,86.41 187.71,96.18 178.73,96.18 178.73,86.41 174.67,86.41 174.67,110 178.73,110 
		178.73,100.23 187.71,100.23 187.71,110 191.77,110 191.77,86.41 	"/>
	<polygon class="st2" points="267.64,90.43 267.64,86.39 253.81,86.39 253.81,110 267.64,110 267.64,105.95 257.88,105.95 
		257.88,100.21 265.2,100.21 265.2,96.17 257.88,96.17 257.88,90.43 	"/>
	<polygon class="st2" points="280.82,105.97 280.82,86.39 276.74,86.39 276.74,110 290.63,110 290.63,105.97 	"/>
</g>
</svg>
