<?xml version="1.0" encoding="utf-8"?>
<!-- Generator: Adobe Illustrator 25.0.1, SVG Export Plug-In . SVG Version: 6.00 Build 0)  -->
<svg version="1.1" id="Layer_1" xmlns="http://www.w3.org/2000/svg" xmlns:xlink="http://www.w3.org/1999/xlink" x="0px" y="0px"
	 viewBox="0 0 397.51 171.19" style="enable-background:new 0 0 397.51 171.19;" xml:space="preserve">
<style type="text/css">
	.st0{fill:#1E1E1E;}
	.st1{fill:#CC3533;}
</style>
<g>
	<g>
		<path class="st0" d="M143.15,63.74l-3.19,0.62c0.14-0.67,0.21-1.22,0.21-1.67c0-2.89-1.67-4.33-5.01-4.33
			c-2.63,0-3.95,0.99-3.95,2.98c0,1.49,1.47,2.77,4.42,3.84c5.69,2.05,8.53,5.08,8.53,9.1c0,2.35-0.8,4.24-2.39,5.67
			c-1.59,1.43-3.72,2.14-6.36,2.14c-5.86,0-8.79-2.38-8.79-7.15c0-0.39,0.03-0.87,0.09-1.44l3.31-0.76
			c-0.25,1.06-0.38,1.97-0.38,2.75c0,3.08,1.68,4.62,5.04,4.62c2.69,0,4.04-1.11,4.04-3.33c0-1.65-1.61-3.1-4.84-4.35
			c-4.66-1.79-6.99-4.66-6.99-8.6c0-2.23,0.78-4.03,2.33-5.39c1.55-1.36,3.6-2.05,6.13-2.05C140.55,56.37,143.15,58.83,143.15,63.74
			z"/>
		<path class="st0" d="M157.32,69.27v12.35h-6.86V56.79h6.86v9.99h5.6v-9.99h6.86v24.83h-6.86V69.27H157.32z"/>
		<path class="st0" d="M187.91,56.79l6.59,24.83h-6.9l-1.4-5.38h-7.12l-1.51,5.38h-2.69l7-24.83H187.91z M179.74,73.75h5.81
			l-2.79-11.01L179.74,73.75z"/>
		<path class="st0" d="M199.65,81.62V56.79h10.17c2.65,0,4.76,0.59,6.34,1.76c1.58,1.17,2.37,2.74,2.37,4.7
			c0,3.01-1.7,4.97-5.1,5.88c1.74,0.68,2.87,1.43,3.39,2.24c0.51,0.81,0.86,2.39,1.05,4.73c0.22,2.79,0.66,4.63,1.33,5.53h-7.45
			c-0.47-1.15-0.71-2.59-0.71-4.31l-0.03-1.47l-0.03-1.86c0-2.86-1.1-4.29-3.29-4.29h-1.18v11.93H199.65z M206.51,67.63h1.39
			c2.6,0,3.9-1.42,3.9-4.27c0-2.85-1.3-4.28-3.9-4.28h-1.39V67.63z"/>
		<path class="st0" d="M240.7,56.79v2.49h-8.48v7.51h7.12v2.49h-7.12v9.84h9.91v2.49h-16.78V56.79H240.7z"/>
		<path class="st0" d="M277.2,71.65l2.93,0.8c0.05,0.63,0.07,1.18,0.07,1.64c0,2.41-0.83,4.34-2.5,5.78
			c-1.66,1.44-3.89,2.16-6.69,2.16c-7.01,0-10.52-4.14-10.52-12.42c0-3.93,1.02-7.12,3.07-9.56c2.05-2.44,4.71-3.67,7.99-3.67
			c5.12,0,7.68,2.58,7.68,7.75l-2.95,1.42c0.03-0.73,0.05-1.29,0.05-1.69c0-3.66-1.4-5.49-4.19-5.49c-2.96,0-4.44,3.89-4.44,11.66
			c0,6.68,1.65,10.02,4.96,10.02c1.36,0,2.5-0.57,3.41-1.71c0.91-1.14,1.36-2.56,1.36-4.27C277.43,73.53,277.35,72.72,277.2,71.65z"
			/>
		<path class="st0" d="M296.85,56.79l6.59,24.83h-6.9l-1.4-5.38h-7.12l-1.51,5.38h-2.69l7-24.83H296.85z M288.69,73.75h5.81
			l-2.79-11.01L288.69,73.75z"/>
		<path class="st0" d="M324.02,56.79v2.49h-8.58v8.28h7.28v2.49h-7.28v11.57h-6.86V56.79H324.02z"/>
		<path class="st0" d="M344.95,56.79v2.49h-8.48v7.51h7.12v2.49h-7.12v9.84h9.91v2.49h-16.78V56.79H344.95z"/>
		<path class="st0" d="M105.6,38.15H50.44c-1.93,0-3.51,1.57-3.51,3.51v58.56c0,1.93,1.57,3.51,3.51,3.51h55.15
			c1.93,0,3.51-1.57,3.51-3.51V41.65C109.1,39.72,107.53,38.15,105.6,38.15z M105.59,41.65l0,58.56l-55.15,0l0-58.56v0L105.59,41.65
			z"/>
		<g>
			<circle class="st1" cx="61.09" cy="60.17" r="7.07"/>
		</g>
		<g>
			<circle class="st1" cx="94.95" cy="60.17" r="7.07"/>
		</g>
		<path class="st0" d="M58.44,79.73v-8.89c0-1.55,1.17-2.76,2.66-2.76c1.5,0,2.72,1.23,2.72,2.75v6.69l4.54,2.28l0,0l4.73,2.38v8.88
			c0,1.55-1.17,2.76-2.66,2.76c-1.5,0-2.72-1.23-2.72-2.75v-6.37L58.44,79.73z"/>
		<path class="st0" d="M97.61,79.73v-8.89c0-1.55-1.17-2.76-2.66-2.76c-1.5,0-2.72,1.23-2.72,2.75v6.69l-9.26,4.66v8.88
			c0,1.55,1.17,2.76,2.66,2.76c1.5,0,2.72-1.23,2.72-2.75v-6.37L97.61,79.73z"/>
		<path class="st0" d="M77.99,63.04c-1.61,0-2.91,1.31-2.91,2.91l0.03,20.38c0,1.61,1.31,2.91,2.91,2.91c1.61,0,2.91-1.31,2.91-2.91
			L80.9,65.95C80.9,64.35,79.59,63.04,77.99,63.04z"/>
		<g>
			<circle class="st1" cx="78.02" cy="55.13" r="7.07"/>
		</g>
	</g>
</g>
</svg>
